<svg width="24" height="24" viewBox="0 0 24 24" fill="none" xmlns="http://www.w3.org/2000/svg">
<path fill-rule="evenodd" clip-rule="evenodd" d="M5.198 14.75C4.39821 14.75 3.75 15.3982 3.75 16.198V18.802C3.75 19.6018 4.39821 20.25 5.198 20.25H7.802C8.60179 20.25 9.25 19.6018 9.25 18.802V16.198C9.25 15.3982 8.60179 14.75 7.802 14.75H5.198ZM2.25 16.198C2.25 14.5698 3.56979 13.25 5.198 13.25H7.802C9.43021 13.25 10.75 14.5698 10.75 16.198V18.802C10.75 20.4302 9.43021 21.75 7.802 21.75H5.198C3.56979 21.75 2.25 20.4302 2.25 18.802V16.198Z" fill="#00D188"/>
<path fill-rule="evenodd" clip-rule="evenodd" d="M16.198 14.75C15.3982 14.75 14.75 15.3982 14.75 16.198V18.802C14.75 19.6018 15.3982 20.25 16.198 20.25H18.802C19.6018 20.25 20.25 19.6018 20.25 18.802V16.198C20.25 15.3982 19.6018 14.75 18.802 14.75H16.198ZM13.25 16.198C13.25 14.5698 14.5698 13.25 16.198 13.25H18.802C20.4302 13.25 21.75 14.5698 21.75 16.198V18.802C21.75 20.4302 20.4302 21.75 18.802 21.75H16.198C14.5698 21.75 13.25 20.4302 13.25 18.802V16.198Z" fill="#00D188"/>
<path fill-rule="evenodd" clip-rule="evenodd" d="M5.198 3.75C4.39821 3.75 3.75 4.39821 3.75 5.198V7.802C3.75 8.60179 4.39821 9.25 5.198 9.25H7.802C8.60179 9.25 9.25 8.60179 9.25 7.802V5.198C9.25 4.39821 8.60179 3.75 7.802 3.75H5.198ZM2.25 5.198C2.25 3.56979 3.56979 2.25 5.198 2.25H7.802C9.43021 2.25 10.75 3.56979 10.75 5.198V7.802C10.75 9.43021 9.43021 10.75 7.802 10.75H5.198C3.56979 10.75 2.25 9.43021 2.25 7.802V5.198Z" fill="#00D188"/>
<path fill-rule="evenodd" clip-rule="evenodd" d="M17.5051 10.75C17.1911 10.75 16.9104 10.5545 16.8016 10.26L16.6655 9.89188C16.2285 8.70906 15.2975 7.77688 14.1171 7.33948L13.7496 7.20327C13.4554 7.09425 13.2602 6.8137 13.2602 6.50001C13.2602 6.18633 13.4554 5.90578 13.7496 5.79676L14.1171 5.66056C15.2974 5.22316 16.2285 4.29099 16.6655 3.10817C16.6655 3.10817 16.6655 3.10817 16.6655 3.10817L16.8015 2.74006C16.9104 2.44555 17.1911 2.24999 17.5051 2.24999C17.819 2.24999 18.0998 2.44555 18.2086 2.74005L18.3446 3.10816C18.7816 4.29098 19.7126 5.22314 20.893 5.66054C20.893 5.66054 20.893 5.66054 20.893 5.66054L21.2606 5.79674C21.5548 5.90574 21.75 6.1863 21.75 6.50001C21.75 6.81372 21.5548 7.09429 21.2606 7.20329L20.893 7.33948C20.893 7.33948 20.893 7.33948 20.893 7.33948C19.7127 7.77689 18.7816 8.70905 18.3446 9.89186L18.2086 10.26C18.0997 10.5545 17.819 10.75 17.5051 10.75ZM19.2389 6.50001C18.5444 6.05152 17.9531 5.45958 17.5051 4.76442C17.057 5.45958 16.4657 6.05152 15.7712 6.50001C16.4657 6.9485 17.057 7.54044 17.5051 8.2356C17.9531 7.54044 18.5444 6.9485 19.2389 6.50001Z" fill="#00D188"/>
</svg>
