<svg width="24" height="24" viewBox="0 0 24 24" fill="none" xmlns="http://www.w3.org/2000/svg">
<path fill-rule="evenodd" clip-rule="evenodd" d="M11.6324 3.75C7.39753 3.75 3.96484 7.18268 3.96484 11.4175C3.96484 15.6525 7.39764 19.086 11.6324 19.086C15.8671 19.086 19.2999 15.6525 19.2999 11.4175C19.2999 7.18268 15.8672 3.75 11.6324 3.75ZM2.46484 11.4175C2.46484 6.35426 6.5691 2.25 11.6324 2.25C16.6956 2.25 20.7999 6.35426 20.7999 11.4175C20.7999 16.4807 16.6957 20.586 11.6324 20.586C6.56899 20.586 2.46484 16.4807 2.46484 11.4175Z" fill="#00D188"/>
<path fill-rule="evenodd" clip-rule="evenodd" d="M16.8303 17.0543C17.1228 16.7611 17.5977 16.7605 17.891 17.053L21.316 20.4692C21.6092 20.7617 21.6099 21.2366 21.3173 21.5299C21.0248 21.8231 20.5499 21.8238 20.2567 21.5312L16.8317 18.115C16.5384 17.8225 16.5378 17.3476 16.8303 17.0543Z" fill="#00D188"/>
<path fill-rule="evenodd" clip-rule="evenodd" d="M9.6865 13.712C9.37254 13.712 9.09181 13.5165 8.98299 13.222L8.88197 12.9486C8.57688 12.1229 7.92697 11.4722 7.10317 11.167L6.83019 11.0658C6.53606 10.9568 6.34084 10.6762 6.34084 10.3626C6.34084 10.0489 6.53606 9.76832 6.83019 9.65931L7.10312 9.55815C7.92692 9.25288 8.57687 8.60225 8.88196 7.77652C8.88197 7.77652 8.88196 7.77652 8.88196 7.77652L8.98298 7.50312C9.09179 7.20861 9.37253 7.01305 9.6865 7.01305C10.0005 7.01305 10.2812 7.20861 10.39 7.50311L10.491 7.77651C10.491 7.77652 10.491 7.77651 10.491 7.77651C10.7961 8.60224 11.446 9.25286 12.2698 9.55813C12.2698 9.55813 12.2698 9.55812 12.2698 9.55813L12.5428 9.65928C12.837 9.76828 13.0322 10.0488 13.0322 10.3626C13.0322 10.6763 12.837 10.9568 12.5428 11.0658L12.2698 11.167C12.2698 11.167 12.2698 11.167 12.2698 11.167C11.446 11.4723 10.7961 12.1229 10.491 12.9486L10.39 13.222C10.2812 13.5165 10.0005 13.712 9.6865 13.712ZM10.6352 10.3626C10.2735 10.0952 9.95364 9.77504 9.6865 9.41305C9.41935 9.77504 9.09953 10.0952 8.73784 10.3626C9.09953 10.63 9.41935 10.9501 9.6865 11.3121C9.95364 10.9501 10.2735 10.63 10.6352 10.3626Z" fill="#00D188"/>
<path fill-rule="evenodd" clip-rule="evenodd" d="M14.9972 14.9541C14.6669 14.9541 14.3756 14.7381 14.2796 14.4222C14.1805 14.0963 13.9261 13.8419 13.6018 13.7431C13.2862 13.6468 13.0705 13.3556 13.0705 13.0257C13.0705 12.6957 13.2862 12.4045 13.6018 12.3082C13.9261 12.2094 14.1805 11.955 14.2796 11.6291C14.3756 11.3132 14.6669 11.0972 14.9972 11.0972C15.3274 11.0972 15.6187 11.3132 15.7147 11.6291C15.8138 11.955 16.0682 12.2094 16.3925 12.3082C16.7082 12.4045 16.9238 12.6957 16.9238 13.0257C16.9238 13.3556 16.7082 13.6468 16.3925 13.7431C16.0682 13.8419 15.8138 14.0963 15.7147 14.4222C15.6187 14.7381 15.3274 14.9541 14.9972 14.9541Z" fill="#00D188"/>
</svg>
