<svg width="25" height="25" viewBox="0 0 25 25" fill="none" xmlns="http://www.w3.org/2000/svg">
<path d="M12.25 18.0342C12.0511 18.0342 11.8603 17.9552 11.7197 17.8145C11.579 17.6739 11.5 17.4831 11.5 17.2842V15.1172C11.5 14.9183 11.579 14.7275 11.7197 14.5869C11.8603 14.4462 12.0511 14.3672 12.25 14.3672C12.4489 14.3672 12.6397 14.4462 12.7803 14.5869C12.921 14.7275 13 14.9183 13 15.1172V17.2842C13 17.4831 12.921 17.6739 12.7803 17.8145C12.6397 17.9552 12.4489 18.0342 12.25 18.0342Z" fill="#00D188"/>
<path d="M16.6978 11.1935C16.4989 11.1935 16.3081 11.1145 16.1674 10.9738C16.0268 10.8332 15.9478 10.6424 15.9478 10.4435V8.34351C15.9424 7.85899 15.8409 7.38035 15.6494 6.93528C15.4578 6.4902 15.1799 6.08752 14.8318 5.75051C14.4885 5.40546 14.0783 5.13431 13.6264 4.95374C13.1744 4.77316 12.6903 4.68698 12.2038 4.7005C11.2403 4.70776 10.3181 5.09251 9.63507 5.77213C8.95208 6.45175 8.56279 7.37207 8.55078 8.33551V10.4355C8.55078 10.6344 8.47176 10.8252 8.33111 10.9658C8.19046 11.1065 7.99969 11.1855 7.80078 11.1855C7.60187 11.1855 7.4111 11.1065 7.27045 10.9658C7.12979 10.8252 7.05078 10.6344 7.05078 10.4355V8.31951C7.05224 6.94038 7.60149 5.61833 8.57771 4.64417C9.55393 3.67001 10.8772 3.12354 12.2563 3.125C13.6354 3.12646 14.9575 3.67571 15.9316 4.65193C16.9058 5.62816 17.4522 6.95138 17.4508 8.33051V10.4305C17.4525 10.5303 17.4343 10.6295 17.3972 10.7222C17.3601 10.8149 17.3048 10.8993 17.2347 10.9703C17.1646 11.0414 17.081 11.0977 16.9888 11.1361C16.8966 11.1744 16.7976 11.1939 16.6978 11.1935Z" fill="#00D188"/>
<path d="M14.9498 22.7494H9.54985C8.42483 22.8714 7.28675 22.7451 6.21585 22.3794C5.44858 22.0094 4.82925 21.3904 4.45885 20.6234C4.09438 19.5522 3.96844 18.4143 4.08984 17.2894V15.1574C3.96826 14.0328 4.09421 12.8952 4.45885 11.8244C4.829 11.0566 5.44881 10.4371 6.21685 10.0674C7.28742 9.70177 8.42516 9.57547 9.54985 9.69739H14.9498C16.0745 9.57564 17.2122 9.70193 18.2828 10.0674C19.0509 10.4373 19.6704 11.0572 20.0398 11.8254C20.4055 12.8956 20.5318 14.033 20.4099 15.1574V17.2864C20.5317 18.4114 20.4054 19.5495 20.0398 20.6204C19.6696 21.3879 19.0498 22.0071 18.2818 22.3764C17.2119 22.743 16.0744 22.8704 14.9498 22.7494ZM9.54985 11.1974C8.64947 11.106 7.73996 11.1813 6.86684 11.4194C6.40533 11.641 6.03294 12.0131 5.81084 12.4744C5.57375 13.3477 5.49885 14.2571 5.58984 15.1574V17.2864C5.49908 18.1874 5.57398 19.0974 5.81084 19.9714C6.03383 20.4312 6.40559 20.8023 6.86585 21.0244C7.73932 21.2624 8.64914 21.3376 9.54985 21.2464H14.9498C15.8502 21.3376 16.7597 21.2624 17.6329 21.0244C18.0936 20.8025 18.4655 20.4309 18.6879 19.9704C18.9259 19.0969 19.0011 18.1871 18.9099 17.2864V15.1544C19.0012 14.254 18.926 13.3445 18.6879 12.4714C18.4662 12.0105 18.0946 11.6385 17.6339 11.4164C16.7604 11.1785 15.8506 11.1033 14.9498 11.1944L9.54985 11.1974Z" fill="#00D188"/>
</svg>