<svg width="25" height="24" viewBox="0 0 25 24" fill="none" xmlns="http://www.w3.org/2000/svg">
<path fill-rule="evenodd" clip-rule="evenodd" d="M10.3109 3.41024C11.4475 2.51169 13.0526 2.51169 14.1892 3.41024L21.7155 9.36806C22.0403 9.62515 22.0952 10.0968 21.8381 10.4216C21.581 10.7464 21.1093 10.8013 20.7845 10.5442L13.259 4.58696C13.2588 4.58685 13.2591 4.58706 13.259 4.58696C12.6677 4.11979 11.8325 4.11955 11.2412 4.58685C11.2412 4.58688 11.2413 4.58681 11.2412 4.58685L3.71553 10.5442C3.39076 10.8013 2.91907 10.7464 2.66198 10.4216C2.40489 10.0968 2.45975 9.62515 2.78453 9.36806L10.3109 3.41024Z" fill="#00D188"/>
<path fill-rule="evenodd" clip-rule="evenodd" d="M4.74609 8.02539C5.16031 8.02539 5.49609 8.36118 5.49609 8.77539V17.4504C5.49609 18.7282 6.5322 19.7643 7.80999 19.7643H16.6893C17.9671 19.7643 19.0032 18.7282 19.0032 17.4504V8.77539C19.0032 8.36118 19.339 8.02539 19.7532 8.02539C20.1674 8.02539 20.5032 8.36118 20.5032 8.77539V17.4504C20.5032 19.5566 18.7956 21.2643 16.6893 21.2643H7.80999C5.70377 21.2643 3.99609 19.5566 3.99609 17.4504V8.77539C3.99609 8.36118 4.33188 8.02539 4.74609 8.02539Z" fill="#00D188"/>
<path fill-rule="evenodd" clip-rule="evenodd" d="M8.44357 13.5302C8.77206 13.2779 9.2429 13.3397 9.49522 13.6682C10.1859 14.5674 11.1765 15.0982 12.2494 15.0982C13.3223 15.0982 14.3129 14.5674 15.0036 13.6682C15.2559 13.3397 15.7267 13.2779 16.0552 13.5302C16.3837 13.7826 16.4455 14.2534 16.1932 14.5819C15.2532 15.8057 13.8425 16.5982 12.2494 16.5982C10.6563 16.5982 9.24562 15.8057 8.30564 14.5819C8.05332 14.2534 8.11507 13.7826 8.44357 13.5302Z" fill="#00D188"/>
</svg>