<?xml version="1.0" encoding="utf-8"?>
<!-- Generator: Adobe Illustrator 25.2.3, SVG Export Plug-In . SVG Version: 6.00 Build 0)  -->
<svg version="1.1" id="Layer_1" xmlns="http://www.w3.org/2000/svg" xmlns:xlink="http://www.w3.org/1999/xlink" x="0px" y="0px"
	 viewBox="520 260 160 230" style="enable-background:new 0 0 1200 750;" xml:space="preserve">
<style type="text/css">
	.st0{fill:#212B30;}
	.st1{fill:#FFBB00;}
	.st2{fill:url(#SVGID_1_);}
	.st3{fill:url(#SVGID_2_);}
	.st4{fill:#FFFFFF;}
	.st5{fill:url(#SVGID_3_);}
	.st6{fill:url(#SVGID_4_);}
	.st7{fill:url(#SVGID_5_);}
	.st8{fill:url(#SVGID_6_);}
	.st9{fill:url(#SVGID_7_);}
	.st10{fill:url(#SVGID_8_);}
	.st11{fill:#7A8083;}
	.st12{fill:url(#SVGID_9_);}
	.st13{fill:url(#SVGID_10_);}
</style>
<g>
	<g>
		<g>
			<path class="st1" d="M600,342.6l-69.6,69.6l61.4,61.4c3,3,8.2,0.9,8.2-3.4V342.6z"/>
			<linearGradient id="SVGID_1_" gradientUnits="userSpaceOnUse" x1="600" y1="411.7889" x2="600" y2="276.8295">
				<stop  offset="0" style="stop-color:#00D188"/>
				<stop  offset="0.5536" style="stop-color:#00D4C8"/>
				<stop  offset="1" style="stop-color:#00D6F7"/>
			</linearGradient>
			<path class="st2" d="M669.6,407.4c0,2.6-2.1,4.8-4.8,4.8H600h-69.6v-67.6c0-1.3,0.5-2.5,1.4-3.4l64.8-64.8c1.9-1.9,4.9-1.9,6.8,0
				l64.8,64.8c0.9,0.9,1.4,2.1,1.4,3.4V407.4z"/>
			<linearGradient id="SVGID_2_" gradientUnits="userSpaceOnUse" x1="565.2123" y1="412.1715" x2="565.2123" y2="276.0833">
				<stop  offset="0" style="stop-color:#009902"/>
				<stop  offset="0.3056" style="stop-color:#00AD50"/>
				<stop  offset="0.7869" style="stop-color:#00CAC7"/>
				<stop  offset="1" style="stop-color:#00D6F6"/>
			</linearGradient>
			<path class="st3" d="M600,412.2h-69.6v-67.6c0-1.3,0.5-2.5,1.4-3.4l64.5-64.5c1.4-1.4,3.7-0.4,3.7,1.5V412.2z"/>
		</g>
	</g>
</g>
</svg>
