<?xml version="1.0" encoding="utf-8"?>
<!-- Generator: Adobe Illustrator 25.2.3, SVG Export Plug-In . SVG Version: 6.00 Build 0)  -->
<svg version="1.1" id="Layer_1" xmlns="http://www.w3.org/2000/svg" xmlns:xlink="http://www.w3.org/1999/xlink" x="0px" y="0px"
	 viewBox="0 0 1200 750" style="enable-background:new 0 0 1200 750;" xml:space="preserve">
<style type="text/css">
	.st0{fill:#212B30;}
	.st1{fill:#FFBB00;}
	.st2{fill:url(#SVGID_1_);}
	.st3{fill:url(#SVGID_2_);}
	.st4{fill:#FFFFFF;}
	.st5{fill:url(#SVGID_3_);}
	.st6{fill:url(#SVGID_4_);}
	.st7{fill:url(#SVGID_5_);}
	.st8{fill:url(#SVGID_6_);}
	.st9{fill:url(#SVGID_7_);}
	.st10{fill:url(#SVGID_8_);}
	.st11{fill:#7A8083;}
	.st12{fill:url(#SVGID_9_);}
	.st13{fill:url(#SVGID_10_);}
</style>
<rect x="0" class="st0" width="1200" height="750"/>
<g>
	<g>
		<g>
			<g>
				<g>
					<path class="st1" d="M428.3,359.1L400,387.3l24.9,24.9c1.2,1.2,3.3,0.4,3.3-1.4V359.1z"/>
					<linearGradient id="SVGID_1_" gradientUnits="userSpaceOnUse" x1="428.2635" y1="387.1597" x2="428.2635" y2="332.336">
						<stop  offset="0" style="stop-color:#00D188"/>
						<stop  offset="0.5536" style="stop-color:#00D4C8"/>
						<stop  offset="1" style="stop-color:#00D6F7"/>
					</linearGradient>
					<path class="st2" d="M456.5,385.4c0,1.1-0.9,1.9-1.9,1.9h-26.3H400v-27.5c0-0.5,0.2-1,0.6-1.4l26.3-26.3c0.8-0.8,2-0.8,2.7,0
						l26.3,26.3c0.4,0.4,0.6,0.9,0.6,1.4V385.4z"/>
					<linearGradient id="SVGID_2_" gradientUnits="userSpaceOnUse" x1="414.1319" y1="387.3151" x2="414.1319" y2="332.0329">
						<stop  offset="0" style="stop-color:#009902"/>
						<stop  offset="0.3056" style="stop-color:#00AD50"/>
						<stop  offset="0.7869" style="stop-color:#00CAC7"/>
						<stop  offset="1" style="stop-color:#00D6F6"/>
					</linearGradient>
					<path class="st3" d="M428.3,387.3H400v-27.5c0-0.5,0.2-1,0.6-1.4l26.2-26.2c0.6-0.6,1.5-0.2,1.5,0.6V387.3z"/>
				</g>
			</g>
			<g>
				<path class="st4" d="M509.8,359.7c0,8.1-6.4,13.5-14.7,13.5h-12.6v14.1h-6.6v-41.2h19.3C503.5,346.1,509.8,351.5,509.8,359.7z
					 M503,359.8c0-4.5-3.8-7.5-8.2-7.5h-12.2v14.8h12.2C499.3,367.1,503,364.2,503,359.8z"/>
				<path class="st4" d="M514.2,355.9h6.5v6.1c1.5-3.8,6.2-7,12.9-7v5.4c-7.9,0-12.7,4.5-12.9,11.2v15.7h-6.5V355.9z"/>
				<path class="st4" d="M533.7,371.7c0-9.2,7.6-16.6,17.2-16.6c9.5,0,17.2,7.5,17.2,16.6c0,9.2-7.6,16.6-17.2,16.6
					C541.3,388.2,533.7,380.8,533.7,371.7z M561.7,371.7c0-5.9-4.7-10.7-10.9-10.7c-6.2,0-10.9,4.8-10.9,10.7
					c0,5.9,4.7,10.7,10.9,10.7C557,382.3,561.7,377.6,561.7,371.7z"/>
				<path class="st4" d="M573,356h6.5v3c2.2-2.2,6-3.9,10.6-3.9c9.6,0,16.4,7.5,16.4,16.6c0,9.2-6.8,16.6-16.4,16.6
					c-5.2,0-8.5-2-10.6-4.2v16.2H573V356z M600.1,371.7c0-5.9-4-10.8-9.9-10.8c-5.9,0-11,3.9-11,10.8c0,6.8,5.2,10.7,11,10.7
					C596.1,382.4,600.1,377.6,600.1,371.7z"/>
				<path class="st4" d="M611.6,355.9h6.5v6.1c1.5-3.8,6.2-7,12.9-7v5.4c-7.9,0-12.7,4.5-12.9,11.2v15.7h-6.5V355.9z"/>
				<path class="st4" d="M671,346.1v41.2h-6.6v-18.9H643v18.9h-6.6v-41.2h6.6v16.1h21.4v-16.1H671z"/>
				<path class="st4" d="M676.8,371.7c0-9.2,7.6-16.6,17.2-16.6c9.5,0,17.2,7.5,17.2,16.6c0,9.2-7.6,16.6-17.2,16.6
					C684.4,388.2,676.8,380.8,676.8,371.7z M704.8,371.7c0-5.9-4.7-10.7-10.9-10.7c-6.2,0-10.9,4.8-10.9,10.7
					c0,5.9,4.7,10.7,10.9,10.7C700.1,382.3,704.8,377.6,704.8,371.7z"/>
				<path class="st4" d="M763.9,368v19.3h-6.5v-18.6c0-5-1.8-7.9-6.1-7.9c-3.9,0-7.9,3-7.9,8.9v17.6h-6.5v-18.6c0-5-1.8-7.9-6.1-7.9
					c-3.6,0-7.3,2.5-7.8,7.6v18.9h-6.5V356h6.5v3.8c0.4-0.8,2.5-4.7,8.8-4.7c4.4,0,7.9,1.8,9.9,5.2c1.5-2.7,4.7-5.2,10.7-5.2
					C759.2,355,763.9,359.4,763.9,368z"/>
				<path class="st4" d="M768.7,371.6c0-9.4,7.2-16.6,16.9-16.6c9.1,0,14.4,7.5,14.4,15.1v3h-25c0.7,4.9,4.1,9.2,11.2,9.2
					c7.7,0,12.4-3.3,12.4-3.3v5.9c0,0-3.4,3.2-12.6,3.2C775,388.2,768.7,380.6,768.7,371.6z M793.5,368.1c-0.2-2.4-1.8-7.7-8.7-7.7
					c-6.9,0-9.2,5.3-9.5,7.7H793.5z"/>
			</g>
		</g>
	</g>
	<g>
		<path class="st11" d="M484.2,414.2v1h-8v-11.3h7.7v1h-6.5v4h5.8v1h-5.8v4.2H484.2z"/>
		<path class="st11" d="M493.4,407.6c0.6,0.6,0.9,1.5,0.9,2.7v4.9h-1.1v-4.8c0-0.9-0.2-1.6-0.7-2c-0.4-0.5-1.1-0.7-1.9-0.7
			c-0.9,0-1.6,0.3-2.2,0.8c-0.5,0.5-0.8,1.3-0.8,2.2v4.4h-1.1v-8.5h1.1v1.6c0.3-0.5,0.7-0.9,1.3-1.2c0.6-0.3,1.2-0.4,1.9-0.4
			C491.9,406.7,492.8,407,493.4,407.6z"/>
		<path class="st11" d="M502.9,407.5c0.6,0.6,0.9,1.4,0.9,2.5v5.3h-1.1v-1.3c-0.3,0.4-0.6,0.8-1.1,1c-0.5,0.2-1.1,0.4-1.8,0.4
			c-0.9,0-1.7-0.2-2.3-0.7c-0.6-0.5-0.8-1-0.8-1.8c0-0.7,0.3-1.3,0.8-1.7c0.5-0.4,1.4-0.7,2.5-0.7h2.7v-0.5c0-0.7-0.2-1.3-0.6-1.7
			c-0.4-0.4-1-0.6-1.8-0.6c-0.5,0-1.1,0.1-1.5,0.3c-0.5,0.2-0.9,0.4-1.3,0.7l-0.5-0.9c0.4-0.4,0.9-0.6,1.5-0.8
			c0.6-0.2,1.2-0.3,1.9-0.3C501.5,406.7,502.3,406.9,502.9,407.5z M501.6,413.9c0.5-0.3,0.8-0.7,1-1.3v-1.4H500
			c-1.4,0-2.2,0.5-2.2,1.5c0,0.5,0.2,0.9,0.6,1.2c0.4,0.3,0.9,0.4,1.6,0.4C500.6,414.4,501.1,414.2,501.6,413.9z"/>
		<path class="st11" d="M513.3,407.2c0.6,0.4,1.2,0.9,1.5,1.5c0.4,0.7,0.5,1.4,0.5,2.2s-0.2,1.6-0.5,2.2c-0.4,0.7-0.9,1.2-1.5,1.5
			c-0.6,0.4-1.4,0.5-2.2,0.5c-0.7,0-1.3-0.2-1.9-0.5s-1-0.7-1.4-1.3v1.7h-1.1v-12h1.1v5.1c0.4-0.5,0.8-1,1.4-1.2
			c0.6-0.3,1.2-0.4,1.9-0.4C511.9,406.7,512.7,406.8,513.3,407.2z M512.7,413.9c0.5-0.3,0.9-0.7,1.1-1.2c0.3-0.5,0.4-1.1,0.4-1.7
			c0-0.6-0.1-1.2-0.4-1.7c-0.3-0.5-0.7-0.9-1.1-1.2c-0.5-0.3-1-0.4-1.6-0.4c-0.6,0-1.1,0.1-1.6,0.4c-0.5,0.3-0.9,0.7-1.1,1.2
			c-0.3,0.5-0.4,1.1-0.4,1.7c0,0.6,0.1,1.2,0.4,1.7c0.3,0.5,0.7,0.9,1.1,1.2c0.5,0.3,1,0.4,1.6,0.4
			C511.7,414.3,512.2,414.1,512.7,413.9z"/>
		<path class="st11" d="M517.8,403.2h1.1v12h-1.1V403.2z"/>
		<path class="st11" d="M522,404.6c-0.2-0.2-0.2-0.4-0.2-0.6c0-0.2,0.1-0.4,0.2-0.6c0.2-0.2,0.4-0.2,0.6-0.2c0.2,0,0.4,0.1,0.6,0.2
			c0.2,0.2,0.2,0.3,0.2,0.6c0,0.2-0.1,0.4-0.2,0.6c-0.2,0.2-0.4,0.2-0.6,0.2C522.3,404.9,522.1,404.8,522,404.6z M522,406.7h1.1v8.5
			H522V406.7z"/>
		<path class="st11" d="M533.1,407.6c0.6,0.6,0.9,1.5,0.9,2.7v4.9h-1.1v-4.8c0-0.9-0.2-1.6-0.7-2c-0.4-0.5-1.1-0.7-1.9-0.7
			c-0.9,0-1.6,0.3-2.2,0.8c-0.5,0.5-0.8,1.3-0.8,2.2v4.4h-1.1v-8.5h1.1v1.6c0.3-0.5,0.7-0.9,1.3-1.2c0.6-0.3,1.2-0.4,1.9-0.4
			C531.6,406.7,532.4,407,533.1,407.6z"/>
		<path class="st11" d="M545,406.7v7.4c0,1.4-0.4,2.5-1.1,3.2c-0.7,0.7-1.8,1-3.2,1c-0.8,0-1.5-0.1-2.2-0.3c-0.7-0.2-1.3-0.5-1.7-1
			l0.6-0.9c0.4,0.4,0.9,0.6,1.5,0.9s1.2,0.3,1.8,0.3c1.1,0,1.9-0.2,2.4-0.7c0.5-0.5,0.8-1.3,0.8-2.3v-1.1c-0.4,0.5-0.8,0.9-1.4,1.2
			c-0.6,0.3-1.2,0.4-1.9,0.4c-0.8,0-1.5-0.2-2.2-0.5c-0.7-0.3-1.2-0.8-1.5-1.5c-0.4-0.6-0.6-1.3-0.6-2.1c0-0.8,0.2-1.5,0.6-2.1
			c0.4-0.6,0.9-1.1,1.5-1.4c0.6-0.3,1.4-0.5,2.2-0.5c0.7,0,1.4,0.1,2,0.4c0.6,0.3,1,0.7,1.4,1.3v-1.6H545z M542.3,413.5
			c0.5-0.3,0.9-0.6,1.2-1.1c0.3-0.5,0.4-1,0.4-1.6c0-0.6-0.1-1.1-0.4-1.6c-0.3-0.5-0.7-0.8-1.1-1.1c-0.5-0.3-1-0.4-1.7-0.4
			c-0.6,0-1.2,0.1-1.7,0.4c-0.5,0.3-0.9,0.6-1.1,1.1c-0.3,0.5-0.4,1-0.4,1.6c0,0.6,0.1,1.1,0.4,1.6c0.3,0.5,0.7,0.8,1.1,1.1
			c0.5,0.3,1,0.4,1.7,0.4S541.8,413.7,542.3,413.5z"/>
		<path class="st11" d="M556.7,414.7c-0.2,0.2-0.5,0.3-0.8,0.4c-0.3,0.1-0.6,0.2-1,0.2c-0.8,0-1.4-0.2-1.8-0.6
			c-0.4-0.4-0.6-1-0.6-1.8v-5.1h-1.5v-1h1.5v-1.9h1.1v1.9h2.6v1h-2.6v5.1c0,0.5,0.1,0.9,0.4,1.2c0.3,0.3,0.6,0.4,1.1,0.4
			c0.2,0,0.5,0,0.7-0.1c0.2-0.1,0.4-0.2,0.6-0.3L556.7,414.7z"/>
		<path class="st11" d="M561,407.1c0.5-0.3,1.2-0.4,2-0.4v1.1l-0.3,0c-0.9,0-1.6,0.3-2.1,0.8c-0.5,0.5-0.8,1.3-0.8,2.3v4.3h-1.1
			v-8.5h1.1v1.7C560.1,407.8,560.5,407.4,561,407.1z"/>
		<path class="st11" d="M572.7,406.7v8.5h-1.1v-1.5c-0.3,0.5-0.7,0.9-1.2,1.2c-0.5,0.3-1.1,0.4-1.8,0.4c-1.1,0-2-0.3-2.6-0.9
			c-0.6-0.6-1-1.5-1-2.7v-4.9h1.1v4.8c0,0.9,0.2,1.6,0.7,2c0.4,0.5,1.1,0.7,1.9,0.7c0.9,0,1.6-0.3,2.1-0.8c0.5-0.5,0.8-1.3,0.8-2.3
			v-4.4H572.7z"/>
		<path class="st11" d="M576.3,415c-0.6-0.2-1.1-0.4-1.5-0.7l0.5-0.9c0.4,0.3,0.8,0.5,1.3,0.7c0.5,0.2,1.1,0.3,1.7,0.3
			c0.8,0,1.3-0.1,1.7-0.4c0.4-0.2,0.6-0.6,0.6-1c0-0.3-0.1-0.6-0.3-0.7c-0.2-0.2-0.5-0.3-0.8-0.4c-0.3-0.1-0.7-0.2-1.2-0.3
			c-0.7-0.1-1.2-0.3-1.7-0.4c-0.4-0.1-0.8-0.4-1.1-0.7c-0.3-0.3-0.4-0.8-0.4-1.3c0-0.7,0.3-1.3,0.9-1.7c0.6-0.5,1.4-0.7,2.5-0.7
			c0.5,0,1.1,0.1,1.6,0.2c0.5,0.1,1,0.3,1.4,0.6l-0.5,0.9c-0.7-0.5-1.5-0.7-2.5-0.7c-0.7,0-1.3,0.1-1.7,0.4c-0.4,0.3-0.6,0.6-0.6,1
			c0,0.3,0.1,0.6,0.3,0.8c0.2,0.2,0.5,0.3,0.8,0.4c0.3,0.1,0.7,0.2,1.3,0.3c0.7,0.1,1.2,0.3,1.6,0.4c0.4,0.1,0.8,0.3,1,0.7
			c0.3,0.3,0.4,0.7,0.4,1.3c0,0.7-0.3,1.3-0.9,1.8c-0.6,0.4-1.5,0.7-2.6,0.7C577.6,415.3,576.9,415.2,576.3,415z"/>
		<path class="st11" d="M588.7,414.7c-0.2,0.2-0.5,0.3-0.8,0.4c-0.3,0.1-0.6,0.2-1,0.2c-0.8,0-1.4-0.2-1.8-0.6
			c-0.4-0.4-0.6-1-0.6-1.8v-5.1H583v-1h1.5v-1.9h1.1v1.9h2.6v1h-2.6v5.1c0,0.5,0.1,0.9,0.4,1.2c0.3,0.3,0.6,0.4,1.1,0.4
			c0.2,0,0.5,0,0.7-0.1c0.2-0.1,0.4-0.2,0.6-0.3L588.7,414.7z"/>
		<path class="st11" d="M598,411.3h-7.1c0.1,0.9,0.4,1.6,1,2.1c0.6,0.5,1.4,0.8,2.3,0.8c0.5,0,1-0.1,1.5-0.3
			c0.4-0.2,0.8-0.5,1.1-0.8l0.6,0.7c-0.4,0.5-0.8,0.8-1.4,1c-0.6,0.2-1.2,0.4-1.9,0.4c-0.9,0-1.6-0.2-2.3-0.6
			c-0.7-0.4-1.2-0.9-1.6-1.5s-0.6-1.4-0.6-2.2s0.2-1.6,0.5-2.2c0.4-0.7,0.9-1.2,1.5-1.5c0.6-0.4,1.3-0.5,2.1-0.5
			c0.8,0,1.5,0.2,2.1,0.5c0.6,0.4,1.1,0.9,1.5,1.5c0.4,0.6,0.5,1.4,0.5,2.2L598,411.3z M591.8,408.4c-0.6,0.5-0.9,1.2-0.9,2h6
			c-0.1-0.8-0.4-1.5-0.9-2c-0.6-0.5-1.2-0.8-2.1-0.8C593.1,407.6,592.4,407.9,591.8,408.4z"/>
		<path class="st11" d="M608.3,403.2v12h-1.1v-1.7c-0.3,0.6-0.8,1-1.4,1.3c-0.6,0.3-1.2,0.5-1.9,0.5c-0.8,0-1.5-0.2-2.2-0.5
			c-0.6-0.4-1.2-0.9-1.5-1.5c-0.4-0.7-0.5-1.4-0.5-2.2s0.2-1.6,0.5-2.2c0.4-0.7,0.9-1.2,1.5-1.5c0.6-0.4,1.4-0.5,2.2-0.5
			c0.7,0,1.3,0.1,1.9,0.4c0.6,0.3,1,0.7,1.4,1.2v-5.1H608.3z M605.6,413.9c0.5-0.3,0.9-0.7,1.1-1.2s0.4-1.1,0.4-1.7
			c0-0.6-0.1-1.2-0.4-1.7s-0.6-0.9-1.1-1.2c-0.5-0.3-1-0.4-1.6-0.4c-0.6,0-1.1,0.1-1.6,0.4c-0.5,0.3-0.9,0.7-1.1,1.2
			c-0.3,0.5-0.4,1.1-0.4,1.7c0,0.6,0.1,1.2,0.4,1.7c0.3,0.5,0.6,0.9,1.1,1.2c0.5,0.3,1,0.4,1.6,0.4
			C604.6,414.3,605.1,414.1,605.6,413.9z"/>
		<path class="st11" d="M617.8,407.1c0.5-0.3,1.2-0.4,2-0.4v1.1l-0.3,0c-0.9,0-1.6,0.3-2.1,0.8c-0.5,0.5-0.8,1.3-0.8,2.3v4.3h-1.1
			v-8.5h1.1v1.7C616.9,407.8,617.3,407.4,617.8,407.1z"/>
		<path class="st11" d="M629.1,411.3H622c0.1,0.9,0.4,1.6,1,2.1c0.6,0.5,1.4,0.8,2.3,0.8c0.5,0,1-0.1,1.5-0.3
			c0.4-0.2,0.8-0.5,1.1-0.8l0.6,0.7c-0.4,0.5-0.8,0.8-1.4,1c-0.6,0.2-1.2,0.4-1.9,0.4c-0.9,0-1.6-0.2-2.3-0.6
			c-0.7-0.4-1.2-0.9-1.6-1.5s-0.6-1.4-0.6-2.2s0.2-1.6,0.5-2.2c0.4-0.7,0.9-1.2,1.5-1.5c0.6-0.4,1.3-0.5,2.1-0.5s1.5,0.2,2.1,0.5
			c0.6,0.4,1.1,0.9,1.5,1.5c0.4,0.6,0.5,1.4,0.5,2.2L629.1,411.3z M623,408.4c-0.6,0.5-0.9,1.2-0.9,2h6c-0.1-0.8-0.4-1.5-0.9-2
			c-0.6-0.5-1.2-0.8-2.1-0.8C624.2,407.6,623.5,407.9,623,408.4z"/>
		<path class="st11" d="M637,407.5c0.6,0.6,0.9,1.4,0.9,2.5v5.3h-1.1v-1.3c-0.3,0.4-0.6,0.8-1.1,1c-0.5,0.2-1.1,0.4-1.8,0.4
			c-0.9,0-1.7-0.2-2.3-0.7c-0.6-0.5-0.8-1-0.8-1.8c0-0.7,0.3-1.3,0.8-1.7c0.5-0.4,1.4-0.7,2.5-0.7h2.7v-0.5c0-0.7-0.2-1.3-0.6-1.7
			c-0.4-0.4-1-0.6-1.8-0.6c-0.5,0-1.1,0.1-1.5,0.3c-0.5,0.2-0.9,0.4-1.3,0.7l-0.5-0.9c0.4-0.4,0.9-0.6,1.5-0.8
			c0.6-0.2,1.2-0.3,1.9-0.3C635.5,406.7,636.4,406.9,637,407.5z M635.7,413.9c0.5-0.3,0.8-0.7,1-1.3v-1.4h-2.7
			c-1.4,0-2.2,0.5-2.2,1.5c0,0.5,0.2,0.9,0.6,1.2s0.9,0.4,1.6,0.4C634.7,414.4,635.2,414.2,635.7,413.9z"/>
		<path class="st11" d="M640.9,403.2h1.1v12h-1.1V403.2z"/>
		<path class="st11" d="M656.7,411.3h-7.1c0.1,0.9,0.4,1.6,1,2.1c0.6,0.5,1.4,0.8,2.3,0.8c0.5,0,1-0.1,1.5-0.3
			c0.4-0.2,0.8-0.5,1.1-0.8l0.6,0.7c-0.4,0.5-0.8,0.8-1.4,1c-0.6,0.2-1.2,0.4-1.9,0.4c-0.9,0-1.6-0.2-2.3-0.6
			c-0.7-0.4-1.2-0.9-1.6-1.5s-0.6-1.4-0.6-2.2s0.2-1.6,0.5-2.2c0.4-0.7,0.9-1.2,1.5-1.5c0.6-0.4,1.3-0.5,2.1-0.5s1.5,0.2,2.1,0.5
			c0.6,0.4,1.1,0.9,1.5,1.5c0.4,0.6,0.5,1.4,0.5,2.2L656.7,411.3z M650.5,408.4c-0.6,0.5-0.9,1.2-0.9,2h6c-0.1-0.8-0.4-1.5-0.9-2
			c-0.6-0.5-1.2-0.8-2.1-0.8C651.8,407.6,651.1,407.9,650.5,408.4z"/>
		<path class="st11" d="M659.5,415c-0.6-0.2-1.1-0.4-1.5-0.7l0.5-0.9c0.4,0.3,0.8,0.5,1.3,0.7c0.5,0.2,1.1,0.3,1.7,0.3
			c0.8,0,1.3-0.1,1.7-0.4c0.4-0.2,0.6-0.6,0.6-1c0-0.3-0.1-0.6-0.3-0.7c-0.2-0.2-0.5-0.3-0.8-0.4c-0.3-0.1-0.7-0.2-1.2-0.3
			c-0.7-0.1-1.2-0.3-1.7-0.4c-0.4-0.1-0.8-0.4-1.1-0.7c-0.3-0.3-0.4-0.8-0.4-1.3c0-0.7,0.3-1.3,0.9-1.7c0.6-0.5,1.4-0.7,2.5-0.7
			c0.5,0,1.1,0.1,1.6,0.2c0.5,0.1,1,0.3,1.4,0.6l-0.5,0.9c-0.7-0.5-1.5-0.7-2.5-0.7c-0.7,0-1.3,0.1-1.7,0.4c-0.4,0.3-0.6,0.6-0.6,1
			c0,0.3,0.1,0.6,0.3,0.8c0.2,0.2,0.5,0.3,0.8,0.4c0.3,0.1,0.7,0.2,1.3,0.3c0.7,0.1,1.2,0.3,1.6,0.4c0.4,0.1,0.8,0.3,1,0.7
			c0.3,0.3,0.4,0.7,0.4,1.3c0,0.7-0.3,1.3-0.9,1.8c-0.6,0.4-1.5,0.7-2.6,0.7C660.8,415.3,660.1,415.2,659.5,415z"/>
		<path class="st11" d="M671.9,414.7c-0.2,0.2-0.5,0.3-0.8,0.4c-0.3,0.1-0.6,0.2-1,0.2c-0.8,0-1.4-0.2-1.8-0.6
			c-0.4-0.4-0.6-1-0.6-1.8v-5.1h-1.5v-1h1.5v-1.9h1.1v1.9h2.6v1h-2.6v5.1c0,0.5,0.1,0.9,0.4,1.2c0.3,0.3,0.6,0.4,1.1,0.4
			c0.2,0,0.5,0,0.7-0.1c0.2-0.1,0.4-0.2,0.6-0.3L671.9,414.7z"/>
		<path class="st11" d="M679.6,407.5c0.6,0.6,0.9,1.4,0.9,2.5v5.3h-1.1v-1.3c-0.3,0.4-0.6,0.8-1.1,1c-0.5,0.2-1.1,0.4-1.8,0.4
			c-0.9,0-1.7-0.2-2.3-0.7c-0.6-0.5-0.8-1-0.8-1.8c0-0.7,0.3-1.3,0.8-1.7c0.5-0.4,1.4-0.7,2.5-0.7h2.7v-0.5c0-0.7-0.2-1.3-0.6-1.7
			c-0.4-0.4-1-0.6-1.8-0.6c-0.5,0-1.1,0.1-1.5,0.3c-0.5,0.2-0.9,0.4-1.3,0.7l-0.5-0.9c0.4-0.4,0.9-0.6,1.5-0.8
			c0.6-0.2,1.2-0.3,1.9-0.3C678.1,406.7,679,406.9,679.6,407.5z M678.3,413.9c0.5-0.3,0.8-0.7,1-1.3v-1.4h-2.7
			c-1.4,0-2.2,0.5-2.2,1.5c0,0.5,0.2,0.9,0.6,1.2s0.9,0.4,1.6,0.4C677.2,414.4,677.8,414.2,678.3,413.9z"/>
		<path class="st11" d="M687.8,414.7c-0.2,0.2-0.5,0.3-0.8,0.4c-0.3,0.1-0.6,0.2-1,0.2c-0.8,0-1.4-0.2-1.8-0.6
			c-0.4-0.4-0.6-1-0.6-1.8v-5.1H682v-1h1.5v-1.9h1.1v1.9h2.6v1h-2.6v5.1c0,0.5,0.1,0.9,0.4,1.2c0.3,0.3,0.6,0.4,1.1,0.4
			c0.2,0,0.5,0,0.7-0.1c0.2-0.1,0.4-0.2,0.6-0.3L687.8,414.7z"/>
		<path class="st11" d="M697.1,411.3H690c0.1,0.9,0.4,1.6,1,2.1c0.6,0.5,1.4,0.8,2.3,0.8c0.5,0,1-0.1,1.5-0.3
			c0.4-0.2,0.8-0.5,1.1-0.8l0.6,0.7c-0.4,0.5-0.8,0.8-1.4,1c-0.6,0.2-1.2,0.4-1.9,0.4c-0.9,0-1.6-0.2-2.3-0.6
			c-0.7-0.4-1.2-0.9-1.6-1.5c-0.4-0.7-0.6-1.4-0.6-2.2s0.2-1.6,0.5-2.2c0.4-0.7,0.9-1.2,1.5-1.5c0.6-0.4,1.3-0.5,2.1-0.5
			c0.8,0,1.5,0.2,2.1,0.5c0.6,0.4,1.1,0.9,1.5,1.5c0.4,0.6,0.5,1.4,0.5,2.2L697.1,411.3z M690.9,408.4c-0.6,0.5-0.9,1.2-0.9,2h6
			c-0.1-0.8-0.4-1.5-0.9-2c-0.6-0.5-1.2-0.8-2.1-0.8C692.1,407.6,691.5,407.9,690.9,408.4z"/>
		<path class="st11" d="M710.9,411.3h-7.1c0.1,0.9,0.4,1.6,1,2.1c0.6,0.5,1.4,0.8,2.3,0.8c0.5,0,1-0.1,1.5-0.3
			c0.4-0.2,0.8-0.5,1.1-0.8l0.6,0.7c-0.4,0.5-0.8,0.8-1.4,1c-0.6,0.2-1.2,0.4-1.9,0.4c-0.9,0-1.6-0.2-2.3-0.6
			c-0.7-0.4-1.2-0.9-1.6-1.5s-0.6-1.4-0.6-2.2s0.2-1.6,0.5-2.2c0.4-0.7,0.9-1.2,1.5-1.5c0.6-0.4,1.3-0.5,2.1-0.5s1.5,0.2,2.1,0.5
			c0.6,0.4,1.1,0.9,1.5,1.5c0.4,0.6,0.5,1.4,0.5,2.2L710.9,411.3z M704.7,408.4c-0.6,0.5-0.9,1.2-0.9,2h6c-0.1-0.8-0.4-1.5-0.9-2
			c-0.6-0.5-1.2-0.8-2.1-0.8C705.9,407.6,705.3,407.9,704.7,408.4z"/>
		<path class="st11" d="M718.4,415.2l-2.7-3.5l-2.7,3.5h-1.3l3.4-4.4l-3.2-4.1h1.3l2.5,3.3l2.5-3.3h1.3l-3.2,4.1l3.4,4.4H718.4z"/>
		<path class="st11" d="M728.2,407.2c0.6,0.4,1.2,0.9,1.5,1.5c0.4,0.7,0.5,1.4,0.5,2.2c0,0.8-0.2,1.6-0.5,2.3
			c-0.4,0.7-0.9,1.2-1.5,1.5c-0.6,0.4-1.4,0.5-2.2,0.5c-0.7,0-1.3-0.1-1.9-0.4c-0.6-0.3-1-0.7-1.4-1.2v4.7h-1.1v-11.6h1.1v1.7
			c0.3-0.6,0.8-1,1.4-1.3c0.6-0.3,1.2-0.5,1.9-0.5C726.8,406.7,727.5,406.8,728.2,407.2z M727.5,413.9c0.5-0.3,0.9-0.7,1.1-1.2
			c0.3-0.5,0.4-1.1,0.4-1.7c0-0.6-0.1-1.2-0.4-1.7c-0.3-0.5-0.7-0.9-1.1-1.2s-1-0.4-1.6-0.4c-0.6,0-1.1,0.1-1.6,0.4
			s-0.9,0.7-1.1,1.2c-0.3,0.5-0.4,1.1-0.4,1.7c0,0.6,0.1,1.2,0.4,1.7c0.3,0.5,0.7,0.9,1.1,1.2c0.5,0.3,1,0.4,1.6,0.4
			C726.5,414.3,727,414.1,727.5,413.9z"/>
		<path class="st11" d="M740.2,411.3h-7.1c0.1,0.9,0.4,1.6,1,2.1c0.6,0.5,1.4,0.8,2.3,0.8c0.5,0,1-0.1,1.5-0.3
			c0.4-0.2,0.8-0.5,1.1-0.8l0.6,0.7c-0.4,0.5-0.8,0.8-1.4,1c-0.6,0.2-1.2,0.4-1.9,0.4c-0.9,0-1.6-0.2-2.3-0.6
			c-0.7-0.4-1.2-0.9-1.6-1.5s-0.6-1.4-0.6-2.2s0.2-1.6,0.5-2.2c0.4-0.7,0.9-1.2,1.5-1.5c0.6-0.4,1.3-0.5,2.1-0.5
			c0.8,0,1.5,0.2,2.1,0.5c0.6,0.4,1.1,0.9,1.5,1.5c0.4,0.6,0.5,1.4,0.5,2.2L740.2,411.3z M734,408.4c-0.6,0.5-0.9,1.2-0.9,2h6
			c-0.1-0.8-0.4-1.5-0.9-2c-0.6-0.5-1.2-0.8-2.1-0.8C735.3,407.6,734.6,407.9,734,408.4z"/>
		<path class="st11" d="M744.8,407.1c0.5-0.3,1.2-0.4,2-0.4v1.1l-0.3,0c-0.9,0-1.6,0.3-2.1,0.8c-0.5,0.5-0.8,1.3-0.8,2.3v4.3h-1.1
			v-8.5h1.1v1.7C743.9,407.8,744.3,407.4,744.8,407.1z"/>
		<path class="st11" d="M748.8,404.6c-0.2-0.2-0.2-0.4-0.2-0.6c0-0.2,0.1-0.4,0.2-0.6c0.2-0.2,0.4-0.2,0.6-0.2
			c0.2,0,0.4,0.1,0.6,0.2c0.2,0.2,0.2,0.3,0.2,0.6c0,0.2-0.1,0.4-0.2,0.6c-0.2,0.2-0.4,0.2-0.6,0.2
			C749.2,404.9,749,404.8,748.8,404.6z M748.8,406.7h1.1v8.5h-1.1V406.7z"/>
		<path class="st11" d="M760.6,411.3h-7.1c0.1,0.9,0.4,1.6,1,2.1c0.6,0.5,1.4,0.8,2.3,0.8c0.5,0,1-0.1,1.5-0.3
			c0.4-0.2,0.8-0.5,1.1-0.8l0.6,0.7c-0.4,0.5-0.8,0.8-1.4,1c-0.6,0.2-1.2,0.4-1.9,0.4c-0.9,0-1.6-0.2-2.3-0.6
			c-0.7-0.4-1.2-0.9-1.6-1.5s-0.6-1.4-0.6-2.2s0.2-1.6,0.5-2.2c0.4-0.7,0.9-1.2,1.5-1.5c0.6-0.4,1.3-0.5,2.1-0.5
			c0.8,0,1.5,0.2,2.1,0.5c0.6,0.4,1.1,0.9,1.5,1.5c0.4,0.6,0.5,1.4,0.5,2.2L760.6,411.3z M754.4,408.4c-0.6,0.5-0.9,1.2-0.9,2h6
			c-0.1-0.8-0.4-1.5-0.9-2c-0.6-0.5-1.2-0.8-2.1-0.8C755.7,407.6,755,407.9,754.4,408.4z"/>
		<path class="st11" d="M769.8,407.6c0.6,0.6,0.9,1.5,0.9,2.7v4.9h-1.1v-4.8c0-0.9-0.2-1.6-0.7-2c-0.4-0.5-1.1-0.7-1.9-0.7
			c-0.9,0-1.6,0.3-2.2,0.8c-0.5,0.5-0.8,1.3-0.8,2.2v4.4h-1.1v-8.5h1.1v1.6c0.3-0.5,0.7-0.9,1.3-1.2c0.6-0.3,1.2-0.4,1.9-0.4
			C768.3,406.7,769.1,407,769.8,407.6z"/>
		<path class="st11" d="M775.1,414.7c-0.7-0.4-1.2-0.9-1.6-1.5c-0.4-0.7-0.6-1.4-0.6-2.2s0.2-1.6,0.6-2.2c0.4-0.7,0.9-1.2,1.6-1.5
			c0.7-0.4,1.4-0.5,2.2-0.5c0.7,0,1.4,0.1,2,0.4c0.6,0.3,1,0.7,1.4,1.2l-0.9,0.6c-0.3-0.4-0.6-0.7-1.1-0.9c-0.4-0.2-0.9-0.3-1.4-0.3
			c-0.6,0-1.2,0.1-1.7,0.4c-0.5,0.3-0.9,0.7-1.1,1.2s-0.4,1.1-0.4,1.7c0,0.7,0.1,1.2,0.4,1.7c0.3,0.5,0.7,0.9,1.1,1.2
			c0.5,0.3,1,0.4,1.7,0.4c0.5,0,1-0.1,1.4-0.3c0.4-0.2,0.8-0.5,1.1-0.9l0.9,0.6c-0.3,0.5-0.8,1-1.4,1.2c-0.6,0.3-1.2,0.4-2,0.4
			C776.5,415.3,775.8,415.1,775.1,414.7z"/>
		<path class="st11" d="M790.3,411.3h-7.1c0.1,0.9,0.4,1.6,1,2.1c0.6,0.5,1.4,0.8,2.3,0.8c0.5,0,1-0.1,1.5-0.3
			c0.4-0.2,0.8-0.5,1.1-0.8l0.6,0.7c-0.4,0.5-0.8,0.8-1.4,1c-0.6,0.2-1.2,0.4-1.9,0.4c-0.9,0-1.6-0.2-2.3-0.6
			c-0.7-0.4-1.2-0.9-1.6-1.5s-0.6-1.4-0.6-2.2s0.2-1.6,0.5-2.2c0.4-0.7,0.9-1.2,1.5-1.5c0.6-0.4,1.3-0.5,2.1-0.5
			c0.8,0,1.5,0.2,2.1,0.5c0.6,0.4,1.1,0.9,1.5,1.5c0.4,0.6,0.5,1.4,0.5,2.2L790.3,411.3z M784.2,408.4c-0.6,0.5-0.9,1.2-0.9,2h6
			c-0.1-0.8-0.4-1.5-0.9-2c-0.6-0.5-1.2-0.8-2.1-0.8C785.4,407.6,784.7,407.9,784.2,408.4z"/>
		<path class="st11" d="M793.1,415c-0.6-0.2-1.1-0.4-1.5-0.7l0.5-0.9c0.4,0.3,0.8,0.5,1.3,0.7c0.5,0.2,1.1,0.3,1.7,0.3
			c0.8,0,1.3-0.1,1.7-0.4c0.4-0.2,0.6-0.6,0.6-1c0-0.3-0.1-0.6-0.3-0.7c-0.2-0.2-0.5-0.3-0.8-0.4c-0.3-0.1-0.7-0.2-1.2-0.3
			c-0.7-0.1-1.2-0.3-1.7-0.4c-0.4-0.1-0.8-0.4-1.1-0.7c-0.3-0.3-0.4-0.8-0.4-1.3c0-0.7,0.3-1.3,0.9-1.7c0.6-0.5,1.4-0.7,2.5-0.7
			c0.5,0,1.1,0.1,1.6,0.2c0.5,0.1,1,0.3,1.4,0.6l-0.5,0.9c-0.7-0.5-1.5-0.7-2.5-0.7c-0.7,0-1.3,0.1-1.7,0.4c-0.4,0.3-0.6,0.6-0.6,1
			c0,0.3,0.1,0.6,0.3,0.8c0.2,0.2,0.5,0.3,0.8,0.4c0.3,0.1,0.7,0.2,1.3,0.3c0.7,0.1,1.2,0.3,1.6,0.4c0.4,0.1,0.8,0.3,1,0.7
			c0.3,0.3,0.4,0.7,0.4,1.3c0,0.7-0.3,1.3-0.9,1.8c-0.6,0.4-1.5,0.7-2.6,0.7C794.4,415.3,793.8,415.2,793.1,415z"/>
	</g>
</g>
</svg>
