<?xml version="1.0" encoding="utf-8"?>
<!-- Generator: Adobe Illustrator 25.2.3, SVG Export Plug-In . SVG Version: 6.00 Build 0)  -->
<svg version="1.1" id="Layer_1" xmlns="http://www.w3.org/2000/svg" xmlns:xlink="http://www.w3.org/1999/xlink" x="0px" y="0px"
	 viewBox="0 0 1200 750" style="enable-background:new 0 0 1200 750;" xml:space="preserve">
<style type="text/css">
	.st0{fill:#212B30;}
	.st1{fill:#FFBB00;}
	.st2{fill:url(#SVGID_1_);}
	.st3{fill:url(#SVGID_2_);}
	.st4{fill:#FFFFFF;}
	.st5{fill:url(#SVGID_3_);}
	.st6{fill:url(#SVGID_4_);}
	.st7{fill:url(#SVGID_5_);}
	.st8{fill:url(#SVGID_6_);}
	.st9{fill:url(#SVGID_7_);}
	.st10{fill:url(#SVGID_8_);}
	.st11{fill:#7A8083;}
	.st12{fill:url(#SVGID_9_);}
	.st13{fill:url(#SVGID_10_);}
</style>
<g>
	<g>
		<g>
			<path class="st1" d="M428.3,361.8L400,390.1l24.9,24.9c1.2,1.2,3.3,0.4,3.3-1.4V361.8z"/>
			<linearGradient id="SVGID_1_" gradientUnits="userSpaceOnUse" x1="428.2632" y1="389.9445" x2="428.2632" y2="335.1208">
				<stop  offset="0" style="stop-color:#00D188"/>
				<stop  offset="0.5536" style="stop-color:#00D4C8"/>
				<stop  offset="1" style="stop-color:#00D6F7"/>
			</linearGradient>
			<path class="st2" d="M456.5,388.2c0,1.1-0.9,1.9-1.9,1.9h-26.3H400v-27.5c0-0.5,0.2-1,0.6-1.4l26.3-26.3c0.8-0.8,2-0.8,2.7,0
				l26.3,26.3c0.4,0.4,0.6,0.9,0.6,1.4V388.2z"/>
			<linearGradient id="SVGID_2_" gradientUnits="userSpaceOnUse" x1="414.1316" y1="390.1" x2="414.1316" y2="334.8176">
				<stop  offset="0" style="stop-color:#009902"/>
				<stop  offset="0.3056" style="stop-color:#00AD50"/>
				<stop  offset="0.7869" style="stop-color:#00CAC7"/>
				<stop  offset="1" style="stop-color:#00D6F6"/>
			</linearGradient>
			<path class="st3" d="M428.3,390.1H400v-27.5c0-0.5,0.2-1,0.6-1.4l26.2-26.2c0.6-0.6,1.5-0.2,1.5,0.6V390.1z"/>
		</g>
	</g>
	<g>
		<path class="st0" d="M509.8,362.4c0,8.1-6.4,13.5-14.7,13.5h-12.6v14.1h-6.6v-41.2h19.3C503.5,348.9,509.8,354.3,509.8,362.4z
			 M503,362.6c0-4.5-3.8-7.5-8.2-7.5h-12.2v14.8h12.2C499.3,369.9,503,367,503,362.6z"/>
		<path class="st0" d="M514.2,358.7h6.5v6.1c1.5-3.8,6.2-7,12.9-7v5.4c-7.9,0-12.7,4.5-12.9,11.2v15.7h-6.5V358.7z"/>
		<path class="st0" d="M533.7,374.5c0-9.2,7.6-16.6,17.2-16.6c9.5,0,17.2,7.5,17.2,16.6c0,9.2-7.6,16.6-17.2,16.6
			C541.3,391,533.7,383.6,533.7,374.5z M561.7,374.5c0-5.9-4.7-10.7-10.9-10.7c-6.2,0-10.9,4.8-10.9,10.7c0,5.9,4.7,10.7,10.9,10.7
			C557,385.1,561.7,380.3,561.7,374.5z"/>
		<path class="st0" d="M573,358.7h6.5v3c2.2-2.2,6-3.9,10.6-3.9c9.6,0,16.4,7.5,16.4,16.6c0,9.2-6.8,16.6-16.4,16.6
			c-5.2,0-8.5-2-10.6-4.2V403H573V358.7z M600.1,374.5c0-5.9-4-10.8-9.9-10.8c-5.9,0-11,3.9-11,10.8c0,6.8,5.2,10.7,11,10.7
			C596.1,385.2,600.1,380.4,600.1,374.5z"/>
		<path class="st0" d="M611.6,358.7h6.5v6.1c1.5-3.8,6.2-7,12.9-7v5.4c-7.9,0-12.7,4.5-12.9,11.2v15.7h-6.5V358.7z"/>
		<path class="st0" d="M671,348.9v41.2h-6.6v-18.9H643v18.9h-6.6v-41.2h6.6v16.1h21.4v-16.1H671z"/>
		<path class="st0" d="M676.8,374.5c0-9.2,7.6-16.6,17.2-16.6c9.5,0,17.2,7.5,17.2,16.6c0,9.2-7.6,16.6-17.2,16.6
			C684.4,391,676.8,383.6,676.8,374.5z M704.8,374.5c0-5.9-4.7-10.7-10.9-10.7c-6.2,0-10.9,4.8-10.9,10.7c0,5.9,4.7,10.7,10.9,10.7
			C700.1,385.1,704.8,380.3,704.8,374.5z"/>
		<path class="st0" d="M763.9,370.8v19.3h-6.5v-18.6c0-5-1.8-7.9-6.1-7.9c-3.9,0-7.9,3-7.9,8.9v17.6h-6.5v-18.6c0-5-1.8-7.9-6.1-7.9
			c-3.6,0-7.3,2.5-7.8,7.6v18.9h-6.5v-31.4h6.5v3.8c0.4-0.8,2.5-4.7,8.8-4.7c4.4,0,7.9,1.8,9.9,5.2c1.5-2.7,4.7-5.2,10.7-5.2
			C759.2,357.8,763.9,362.2,763.9,370.8z"/>
		<path class="st0" d="M768.7,374.4c0-9.4,7.2-16.6,16.9-16.6c9.1,0,14.4,7.5,14.4,15.1v3h-25c0.7,4.9,4.1,9.2,11.2,9.2
			c7.7,0,12.4-3.3,12.4-3.3v5.9c0,0-3.4,3.2-12.6,3.2C775,391,768.7,383.4,768.7,374.4z M793.5,370.9c-0.2-2.4-1.8-7.7-8.7-7.7
			c-6.9,0-9.2,5.3-9.5,7.7H793.5z"/>
	</g>
</g>
</svg>
