<svg width="24" height="24" viewBox="0 0 24 24" fill="none" xmlns="http://www.w3.org/2000/svg">
<path d="M8.04403 21C5.9716 20.9543 4.32825 19.237 4.37398 17.1646V6.65744C4.42263 4.61809 6.09419 2.99226 8.13451 3.00101H13.7855C14.344 3.00101 14.8782 3.22771 15.2644 3.63052L19.0561 7.57981C19.4219 7.96219 19.6272 8.47106 19.6272 8.99938V17.1646C19.6409 19.2195 18.0238 20.9173 15.9698 21.001M8.04403 21C8.07419 21 8.10435 21.001 8.13451 21.001H15.9698M8.04403 21C8.07419 21 15.9698 21.001 15.9698 21.001" stroke="#00D188" stroke-width="1.5" stroke-linecap="round" stroke-linejoin="round"/>
<path d="M14.2695 3.06348V5.95612C14.2686 7.3679 15.4118 8.51309 16.8236 8.51601H19.5625" stroke="#00D188" stroke-width="1.5" stroke-linecap="round" stroke-linejoin="round"/>
<path d="M14.9785 17.4932V15.5996" stroke="#00D188" stroke-width="1.5" stroke-linecap="round" stroke-linejoin="round"/>
<path d="M10.2485 17.4933V14.9055" stroke="#00D188" stroke-width="1.5" stroke-linecap="round" stroke-linejoin="round"/>
<path d="M12.614 17.4931V16.7932" stroke="#00D188" stroke-width="1.5" stroke-linecap="round" stroke-linejoin="round"/>
<path d="M7.81473 17.4931V16.7932" stroke="#00D188" stroke-width="1.5" stroke-linecap="round" stroke-linejoin="round"/>
<path d="M7.50098 13.9089L9.99624 11.2051L12.843 13.0686L15.2844 10.4399" stroke="#00D188" stroke-width="1.5" stroke-linecap="round" stroke-linejoin="round"/>
</svg>
