<svg width="24" height="24" viewBox="0 0 24 24" fill="none" xmlns="http://www.w3.org/2000/svg">
<path fill-rule="evenodd" clip-rule="evenodd" d="M5.83793 17.1323C5.83793 17.5465 6.17372 17.8823 6.58793 17.8823H9.98535C10.3996 17.8823 10.7354 17.5465 10.7354 17.1323C10.7354 16.7181 10.3996 16.3823 9.98535 16.3823H6.58793C6.17372 16.3823 5.83793 16.7181 5.83793 17.1323ZM5.81104 14.5715C5.81104 14.9857 6.14682 15.3215 6.56104 15.3215H8.27302C8.68724 15.3215 9.02302 14.9857 9.02302 14.5715C9.02302 14.1573 8.68724 13.8215 8.27302 13.8215H6.56104C6.14682 13.8215 5.81104 14.1573 5.81104 14.5715Z" fill="#00D188"/>
<path fill-rule="evenodd" clip-rule="evenodd" d="M17.3739 8.17773C17.3739 7.76352 17.0381 7.42773 16.6239 7.42773H11.6744C11.2602 7.42773 10.9244 7.76352 10.9244 8.17773C10.9244 8.59195 11.2602 8.92773 11.6744 8.92773H16.6239C17.0381 8.92773 17.3739 8.59195 17.3739 8.17773ZM17.4131 11.0413C17.4131 10.627 17.0773 10.2913 16.6631 10.2913H14.169C13.7548 10.2913 13.419 10.627 13.419 11.0413C13.419 11.4555 13.7548 11.7913 14.169 11.7913H16.6631C17.0773 11.7913 17.4131 11.4555 17.4131 11.0413Z" fill="#00D188"/>
<path fill-rule="evenodd" clip-rule="evenodd" d="M2.31982 15.8264C2.31982 12.5692 4.96852 9.93311 8.23051 9.93311C11.4925 9.93311 14.1412 12.5692 14.1412 15.8264C14.1412 19.0836 11.4925 21.7197 8.23051 21.7197H3.64323C2.91472 21.7197 2.31982 21.1304 2.31982 20.3982V15.8264ZM8.23051 11.4331C5.79217 11.4331 3.81982 13.4024 3.81982 15.8264V20.2197H8.23051C10.6689 20.2197 12.6412 18.2504 12.6412 15.8264C12.6412 13.4024 10.6689 11.4331 8.23051 11.4331Z" fill="#00D188"/>
<path fill-rule="evenodd" clip-rule="evenodd" d="M21.6802 10.4671C21.6802 5.94324 18.0012 2.28027 13.4682 2.28027C8.93529 2.28027 5.25629 5.94324 5.25629 10.4671C5.25629 10.6958 5.26572 10.9225 5.28424 11.1468C5.31832 11.5596 5.68059 11.8667 6.0934 11.8326C6.50621 11.7985 6.81323 11.4362 6.77915 11.0234C6.76402 10.8401 6.75629 10.6546 6.75629 10.4671C6.75629 6.77643 9.75894 3.78027 13.4682 3.78027C17.1775 3.78027 20.1802 6.77643 20.1802 10.4671V17.0775C20.1802 17.1173 20.1471 17.1538 20.1011 17.1538H13.1642C12.75 17.1538 12.4142 17.4896 12.4142 17.9038C12.4142 18.3181 12.75 18.6538 13.1642 18.6538H20.1011C20.9708 18.6538 21.6802 17.9505 21.6802 17.0775V10.4671Z" fill="#00D188"/>
</svg>
