<svg width="25" height="24" viewBox="0 0 25 24" fill="none" xmlns="http://www.w3.org/2000/svg">
<path fill-rule="evenodd" clip-rule="evenodd" d="M12.0103 3.98926C7.58611 3.98926 4 7.57537 4 11.9996C4 16.4237 7.58611 20.0099 12.0103 20.0099C16.4345 20.0099 20.0206 16.4237 20.0206 11.9996C20.0206 7.57537 16.4345 3.98926 12.0103 3.98926ZM2.5 11.9996C2.5 6.74694 6.75768 2.48926 12.0103 2.48926C17.2629 2.48926 21.5206 6.74694 21.5206 11.9996C21.5206 17.2522 17.2629 21.5099 12.0103 21.5099C6.75768 21.5099 2.5 17.2522 2.5 11.9996Z" fill="#00D188"/>
<path fill-rule="evenodd" clip-rule="evenodd" d="M21.9054 5.03515C22.1077 5.39658 21.9787 5.8536 21.6173 6.05594C17.009 8.63571 14.1275 12.824 12.7528 15.4064C12.6256 15.6454 12.3795 15.7973 12.1088 15.8038C11.8381 15.8103 11.585 15.6704 11.4464 15.4378C10.5238 13.889 9.3536 12.5107 7.92625 11.3052C7.6098 11.0379 7.56992 10.5647 7.83718 10.2483C8.10444 9.93183 8.57764 9.89195 8.89409 10.1592C10.113 11.1887 11.164 12.3384 12.0481 13.6057C13.6686 10.895 16.5482 7.17461 20.8846 4.74707C21.246 4.54474 21.7031 4.67371 21.9054 5.03515Z" fill="#00D188"/>
</svg>